PathFileType	4	(X/Y/Z)	C:/Users/opensim2020/Desktop/walking_exp_matlab/subject03_walking05_straight_03.trc																																																																																																																																					
DataRate	CameraRate	NumFrames	NumMarkers	Units	OrigDataRate	OrigDataStartFrame	OrigNumFrames																																																																																																																																	
100	100	5	45	mm	100	2330	293																																																																																																																																	
Frame#	Time	LFHD			RFHD			LBHD			RBHD			C7			T10			CLAV			STRN			RBAK			LSHO			LUPA			LELB			LFRM			LWRA			LWRB			LFIN			RSHO			RUPA			RELB			RFRM			RWRA			RWRB			RFIN			LASI			RASI			LPSI			RPSI			LTHI			LKNE			LTIB			LANK			LHEE			LTOE			RTHI			RKNE			RTIB			RANK			RHEE			RTOE			*39			*40			*41			*42			*43			*44		
		X1	Y1	Z1	X2	Y2	Z2	X3	Y3	Z3	X4	Y4	Z4	X5	Y5	Z5	X6	Y6	Z6	X7	Y7	Z7	X8	Y8	Z8	X9	Y9	Z9	X10	Y10	Z10	X11	Y11	Z11	X12	Y12	Z12	X13	Y13	Z13	X14	Y14	Z14	X15	Y15	Z15	X16	Y16	Z16	X17	Y17	Z17	X18	Y18	Z18	X19	Y19	Z19	X20	Y20	Z20	X21	Y21	Z21	X22	Y22	Z22	X23	Y23	Z23	X24	Y24	Z24	X25	Y25	Z25	X26	Y26	Z26	X27	Y27	Z27	X28	Y28	Z28	X29	Y29	Z29	X30	Y30	Z30	X31	Y31	Z31	X32	Y32	Z32	X33	Y33	Z33	X34	Y34	Z34	X35	Y35	Z35	X36	Y36	Z36	X37	Y37	Z37	X38	Y38	Z38	X39	Y39	Z39	X40	Y40	Z40	X41	Y41	Z41	X42	Y42	Z42	X43	Y43	Z43	X44	Y44	Z44	X45	Y45	Z45
																																																																																																																																								
220	2.19	518.79437	1616.51526	-1102.89917	492.28601	1625.04163	-972.34009	390.48581	1577.82361	-1122.55457	369.68335	1586.00781	-993.6394	344.02533	1419.26257	-1061.35352	310.34052	1104.40881	-1060.62903	463.69839	1341.10852	-1047.02319	507.53372	1176.91479	-1045.92664	279.14093	1243.50427	-970.07959	433.40643	1376.54309	-1206.97852	434.62897	1178.79944	-1277.85681	445.83356	1056.08691	-1288.64001	474.00726	928.61017	-1282.36035	488.05072	811.81689	-1249.18787	476.88147	815.96448	-1303.56372	491.52963	733.26489	-1290.32434	402.0408	1366.40833	-892.84113	415.03656	1143.24695	-825.1142	443.24982	1033.22034	-814.79846	480.06357	901.46051	-816.96844	526.98114	814.28412	-855.2016	495.35565	802.13324	-812.78571	529.82208	736.73706	-825.28937	486.72058	945.13489	-1165.38037	466.08273	938.22028	-926.716	321.04977	967.14343	-1128.12708	309.47046	966.26758	-979.18793	443.47668	643.27618	-1204.93481	454.29224	465.79941	-1162.62134	410.83817	274.93994	-1166.56885	400.22507	65.0949	-1123.8158	358.45187	30.22034	-1090.26099	552.66095	30.00683	-1092.17505	450.26437	639.94403	-884.38556	502.49039	467.54669	-903.07318	362.66971	340.73016	-910.62695	204.60237	197.4189	-961.59753	156.78336	202.48358	-1020.20282	272.09689	72.36054	-963.45819	431.14911	1683.10474	-1070.50208	NaN	NaN	NaN	NaN	NaN	NaN	NaN	NaN	NaN	NaN	NaN	NaN	NaN	NaN	NaN
221	2.2	527.99036	1616.58179	-1102.49402	501.22171	1625.07471	-972.00256	399.78857	1577.89343	-1122.44458	378.64951	1586.00989	-993.61719	352.98795	1419.4425	-1061.45142	318.93204	1104.67566	-1061.03503	472.56308	1341.14148	-1046.93689	516.10608	1176.89014	-1046.18604	287.74197	1243.79163	-970.51935	442.66122	1377.10596	-1206.78979	446.64804	1179.99158	-1278.1604	460.61264	1057.60022	-1289.07275	491.10715	930.54669	-1282.73914	507.52966	814.25525	-1249.93616	497.00653	818.49957	-1304.3551	514.36621	736.43146	-1291.4071	410.46924	1366.45068	-892.901	421.86337	1143.06104	-825.43732	449.31686	1032.85181	-815.0304	484.55432	900.60791	-816.69537	530.59717	812.76947	-854.49921	498.61172	801.25037	-812.23517	532.55743	735.58936	-823.90778	495.16238	945.22748	-1166.03845	475.30353	939.13708	-927.58215	329.69339	966.96979	-1128.3822	318.35648	966.44379	-979.30988	450.57578	642.9447	-1205.15955	459.77408	465.5387	-1162.66199	414.17279	274.99063	-1166.66431	400.43729	65.20887	-1123.74158	358.56686	30.35196	-1090.33569	552.82062	29.99825	-1092.07617	464.4082	641.20618	-884.58887	519.87659	469.7981	-903.92926	382.98959	339.76746	-911.46844	228.19347	193.19678	-962.32306	179.38007	196.57358	-1020.51587	299.64468	70.509	-965.16315	439.60428	1681.9502	-1069.75122	NaN	NaN	NaN	NaN	NaN	NaN	NaN	NaN	NaN	NaN	NaN	NaN	NaN	NaN	NaN
222	2.21	537.20453	1616.61853	-1102.00781	510.18619	1625.01929	-971.58197	408.99878	1577.88916	-1122.27612	387.58652	1585.90344	-993.46002	361.89709	1419.56055	-1061.56714	327.49268	1104.8335	-1061.30945	481.44565	1341.15515	-1046.79944	524.67883	1176.78076	-1046.45447	296.24026	1243.95972	-970.80615	451.90103	1377.61499	-1206.53857	458.50259	1181.2605	-1278.58887	475.17328	1059.16919	-1289.55725	508.3623	932.88385	-1283.16528	527.14178	816.69763	-1250.54309	516.82092	820.9837	-1304.92834	537.78424	739.89832	-1292.70642	418.93671	1366.46936	-892.94476	428.478	1142.81934	-825.63208	455.21118	1032.49939	-815.08289	488.98358	899.93848	-816.44269	534.22968	811.39801	-853.68994	501.87598	800.38184	-811.5976	535.32001	734.47412	-822.50494	503.54803	945.50684	-1166.36536	484.18225	939.8006	-928.23499	338.23642	966.83887	-1128.53015	327.15536	966.58276	-979.45825	457.64172	642.74841	-1205.24304	465.15256	465.19519	-1162.72009	417.31433	275.07233	-1166.70764	400.79736	65.38396	-1123.74353	359.10135	30.1281	-1090.33057	553.02405	30.08251	-1092.07678	478.90146	642.41748	-885.1828	537.02783	472.07816	-904.72443	403.38321	338.3197	-912.19342	252.16725	188.05298	-963.17145	202.74792	189.61572	-1020.96851	328.39514	68.29883	-966.76666	449.2804	1683.54602	-1069.87598	NaN	NaN	NaN	NaN	NaN	NaN	NaN	NaN	NaN	NaN	NaN	NaN	NaN	NaN	NaN
223	2.22	546.35162	1616.57959	-1101.52673	519.15118	1624.85205	-971.07257	418.21866	1577.88611	-1122.11304	396.51999	1585.7406	-993.28033	370.84143	1419.61523	-1061.61438	336.05109	1104.94714	-1061.49878	490.25891	1341.03577	-1046.67761	533.21344	1176.61853	-1046.68445	304.88043	1244.31873	-971.03461	461.07288	1378.07227	-1206.34729	470.34247	1182.42749	-1279.1554	489.42383	1060.75183	-1290.10779	525.66583	935.47107	-1283.75293	546.57416	819.49634	-1250.90356	536.69891	823.72449	-1305.44409	559.62134	743.51538	-1293.28503	427.47638	1366.38818	-892.96533	434.98495	1142.5177	-825.71338	460.93878	1032.11389	-814.93536	493.31873	899.18317	-815.92133	537.94525	810.10699	-852.76392	505.13837	799.58655	-810.88281	538.23553	733.42767	-821.22211	511.75323	945.34277	-1166.5697	492.99988	940.2157	-928.85663	346.70096	966.60437	-1128.62695	335.90158	966.57916	-979.53906	464.66193	642.44696	-1205.27246	470.34592	464.92844	-1162.80652	420.2153	275.16675	-1166.7124	401.11362	65.66238	-1123.60999	358.99298	31.0117	-1090.0448	552.99976	29.79877	-1091.95178	492.81299	643.79865	-885.47784	553.76599	474.33621	-905.62994	423.69406	336.53986	-912.90186	276.89185	181.93994	-964.04242	226.92006	181.679	-1021.59918	358.06812	65.91937	-968.35193	458.10248	1682.40649	-1069.31494	NaN	NaN	NaN	NaN	NaN	NaN	NaN	NaN	NaN	NaN	NaN	NaN	NaN	NaN	NaN
224	2.23	555.47919	1616.45923	-1100.91431	527.9826	1624.5675	-970.53235	427.40781	1577.8092	-1121.78857	405.43741	1585.54333	-993.04199	379.77609	1419.60132	-1061.76892	344.58301	1104.96045	-1061.74048	499.10275	1340.91296	-1046.56177	541.82068	1176.40234	-1046.86597	313.48883	1244.44836	-971.20886	470.29709	1378.41724	-1206.06787	481.81717	1183.46362	-1279.48352	503.51996	1062.31262	-1290.76733	542.72919	937.98914	-1284.33325	565.9021	822.4635	-1251.17542	556.63916	826.68274	-1305.95398	582.32306	747.68274	-1294.20581	435.94739	1366.24182	-892.98883	441.73483	1142.24976	-825.58142	466.62839	1031.67285	-814.61731	497.79123	898.46002	-815.33051	541.68964	808.8147	-851.72046	508.52576	798.755	-810.09137	541.06763	732.2829	-819.85004	520.24847	945.1297	-1167.09265	501.79825	940.38715	-929.30096	355.18729	966.34631	-1128.71191	344.61389	966.45026	-979.56464	470.73206	642.1546	-1206.08264	475.22971	464.55957	-1162.97803	422.90805	275.25763	-1166.69434	401.49481	66.02969	-1123.46729	359.11578	31.34642	-1089.97388	553.16406	29.84889	-1091.96423	505.95895	645.17462	-885.63025	570.00494	476.52972	-906.47986	444.04916	334.44629	-913.78381	302.16003	175.1555	-965.11481	251.64326	172.86351	-1022.64325	388.80551	63.59866	-969.61188	467.74039	1683.27991	-1069.24939	NaN	NaN	NaN	NaN	NaN	NaN	NaN	NaN	NaN	NaN	NaN	NaN	NaN	NaN	NaN
